<svg data-v-423bf9ae="" xmlns="http://www.w3.org/2000/svg" viewBox="0 0 415 90" class="iconLeft"><!----><!----><!----><g data-v-423bf9ae="" id="a7b3c133-0c38-4197-a07a-958ec42822ad" fill="#342103" transform="matrix(5.708169460296631,0,0,5.708169460296631,77.03655242919922,1.9282926321029663)"><path d="M4.76 2.29L3.85 3.17L3.85 3.17Q5.09 3.88 4.80 4.93L4.80 4.93L4.80 4.93Q4.50 5.97 3.57 6.84L3.57 6.84L2.05 4.42L2.05 4.42Q1.42 3.36 1.13 3.47L1.13 3.47L0.12 4.50L0.29 4.72L0.29 4.72Q0.62 4.33 0.91 4.62L0.91 4.62L2.68 7.32L2.68 11.12L2.68 11.12Q2.60 12.27 3.34 12.75L3.34 12.75L4.30 11.92L4.18 11.68L4.18 11.68Q3.75 11.96 3.73 10.90L3.73 10.90L3.71 7.35L3.71 7.35Q5.71 5.33 5.84 4.08L5.84 4.08L5.84 4.08Q5.96 2.84 4.76 2.29L4.76 2.29ZM8.95 6.60L8.95 6.60L8.95 6.60Q7.88 6.43 6.95 7.26L6.95 7.26L6.95 7.26Q6.02 8.09 5.76 9.20L5.76 9.20L5.76 9.20Q5.50 10.31 5.92 11.26L5.92 11.26L5.92 11.26Q6.34 12.22 7.49 12.62L7.49 12.62L7.49 12.62Q8.42 12.93 9.42 12.18L9.42 12.18L9.42 12.18Q10.42 11.43 10.53 10.84L10.53 10.84L10.33 10.68L10.33 10.68Q9.51 11.85 8.73 11.81L8.73 11.81L8.73 11.81Q7.95 11.76 7.56 11.46L7.56 11.46L7.56 11.46Q7.18 11.15 6.97 10.80L6.97 10.80L8.86 9.54L8.86 9.54Q10.30 8.65 10.16 7.70L10.16 7.70L10.16 7.70Q10.01 6.76 8.95 6.60ZM6.51 8.75L6.51 8.75L6.51 8.75Q6.52 8.12 7.03 7.58L7.03 7.58L7.03 7.58Q7.53 7.04 8.13 7.19L8.13 7.19L8.13 7.19Q8.73 7.34 8.97 8.00L8.97 8.00L8.97 8.00Q9.20 8.67 8.91 9.02L8.91 9.02L8.91 9.02Q8.61 9.37 6.79 10.40L6.79 10.40L6.79 10.40Q6.63 10.04 6.57 9.71L6.57 9.71L6.57 9.71Q6.51 9.37 6.51 8.75ZM12.28 3.53L11.33 4.05L11.33 4.05Q11.63 4.42 11.61 5.35L11.61 5.35L11.61 5.35Q11.43 11.53 11.54 12.01L11.54 12.01L11.54 12.01Q11.66 12.50 12.22 12.80L12.22 12.80L13.54 11.96L13.41 11.72L13.41 11.72Q12.91 12.04 12.66 11.35L12.66 11.35L12.66 11.35Q12.41 10.66 12.63 4.89L12.63 4.89L12.63 4.89Q12.60 3.89 12.28 3.53L12.28 3.53ZM15.45 3.53L14.50 4.05L14.50 4.05Q14.79 4.42 14.78 5.35L14.78 5.35L14.78 5.35Q14.59 11.53 14.71 12.01L14.71 12.01L14.71 12.01Q14.82 12.50 15.39 12.80L15.39 12.80L16.71 11.96L16.57 11.72L16.57 11.72Q16.07 12.04 15.82 11.35L15.82 11.35L15.82 11.35Q15.57 10.66 15.79 4.89L15.79 4.89L15.79 4.89Q15.76 3.89 15.45 3.53L15.45 3.53ZM19.82 6.45L19.82 6.45Q18.68 7.21 18.20 7.77L18.20 7.77L18.20 7.77Q17.73 8.33 17.53 8.89L17.53 8.89L17.53 8.89Q17.34 9.46 17.47 10.32L17.47 10.32L17.47 10.32Q17.60 11.17 18.46 11.96L18.46 11.96L18.46 11.96Q19.33 12.75 19.85 12.75L19.85 12.75L19.85 12.75Q20.37 12.76 21.49 11.73L21.49 11.73L21.49 11.73Q21.92 11.34 22.31 10.82L22.31 10.82L22.31 10.82Q22.70 10.31 22.81 9.74L22.81 9.74L22.81 9.74Q22.93 9.17 22.75 8.50L22.75 8.50L22.75 8.50Q22.58 7.83 21.77 7.04L21.77 7.04L21.77 7.04Q20.97 6.25 19.82 6.45L19.82 6.45ZM19.46 7.26L19.46 7.26L19.46 7.26Q20.25 7.08 21.18 8.24L21.18 8.24L21.18 8.24Q22.12 9.41 21.92 10.23L21.92 10.23L21.92 10.23Q21.72 11.06 21.07 11.56L21.07 11.56L21.07 11.56Q20.41 12.05 19.67 11.45L19.67 11.45L19.67 11.45Q18.94 10.84 18.50 10.15L18.50 10.15L18.50 10.15Q18.06 9.46 18.37 8.45L18.37 8.45L18.37 8.45Q18.68 7.43 19.46 7.26ZM28.16 10.45L27.92 10.17L26.76 11.57L24.34 6.67L24.34 6.67Q24.09 6.38 23.70 6.71L23.70 6.71L22.83 7.37L22.96 7.57L22.96 7.57Q23.24 7.11 23.83 8.15L23.83 8.15L26.08 12.69L26.35 12.69L26.96 11.91L28.16 10.45ZM28.80 7.12L28.80 7.12L28.96 7.24L28.96 7.24Q29.46 6.55 30.32 7.48L30.32 7.48L30.32 7.48Q31.18 8.40 30.90 9.44L30.90 9.44L30.90 9.44Q30.62 10.48 29.70 11.57L29.70 11.57L27.28 6.67L27.28 6.67Q27.03 6.38 26.64 6.71L26.64 6.71L25.77 7.37L25.89 7.57L25.89 7.57Q26.17 7.11 26.77 8.15L26.77 8.15L29.02 12.69L29.29 12.69L29.90 11.91L29.90 11.91Q30.86 10.77 31.56 9.74L31.56 9.74L31.56 9.74Q32.26 8.71 31.77 7.57L31.77 7.57L31.77 7.57Q31.29 6.43 30.40 6.17L30.40 6.17L30.40 6.17Q29.52 5.91 28.80 7.12ZM37.28 4.34L37.33 4.76L37.33 4.76Q38.19 3.82 38.99 4.44L38.99 4.44L38.99 4.44Q39.79 5.06 39.61 6.12L39.61 6.12L39.61 6.12Q39.43 7.18 38.19 7.69L38.19 7.69L37.36 8.11L37.32 4.25L37.32 4.25Q37.20 3.90 36.62 3.53L36.62 3.53L35.75 4.24L35.81 4.44L35.81 4.44Q36.29 4.14 36.20 5.61L36.20 5.61L36.20 11.22L36.20 11.22Q36.19 12.38 36.99 12.76L36.99 12.76L37.96 11.84L37.84 11.58L37.84 11.58Q37.42 11.93 37.34 10.95L37.34 10.95L37.35 8.50L37.35 8.50Q38.62 7.85 40.18 11.88L40.18 11.88L40.18 11.88Q40.62 12.74 41.38 12.72L41.38 12.72L42.10 11.84L41.99 11.59L41.99 11.59Q41.54 12.20 40.64 10.02L40.64 10.02L40.64 10.02Q39.74 7.83 38.54 7.88L38.54 7.88L38.54 7.88Q39.94 7.49 40.56 6.53L40.56 6.53L40.56 6.53Q41.19 5.57 40.79 4.66L40.79 4.66L40.79 4.66Q40.40 3.75 39.33 3.55L39.33 3.55L39.33 3.55Q38.26 3.35 37.28 4.34L37.28 4.34ZM45.06 6.45L45.06 6.45Q43.91 7.21 43.44 7.77L43.44 7.77L43.44 7.77Q42.96 8.33 42.77 8.89L42.77 8.89L42.77 8.89Q42.58 9.46 42.71 10.32L42.71 10.32L42.71 10.32Q42.83 11.17 43.70 11.96L43.70 11.96L43.70 11.96Q44.57 12.75 45.09 12.75L45.09 12.75L45.09 12.75Q45.61 12.76 46.72 11.73L46.72 11.73L46.72 11.73Q47.15 11.34 47.55 10.82L47.55 10.82L47.55 10.82Q47.94 10.31 48.05 9.74L48.05 9.74L48.05 9.74Q48.17 9.17 47.99 8.50L47.99 8.50L47.99 8.50Q47.82 7.83 47.01 7.04L47.01 7.04L47.01 7.04Q46.20 6.25 45.06 6.45L45.06 6.45ZM44.70 7.26L44.70 7.26L44.70 7.26Q45.49 7.08 46.42 8.24L46.42 8.24L46.42 8.24Q47.36 9.41 47.16 10.23L47.16 10.23L47.16 10.23Q46.96 11.06 46.31 11.56L46.31 11.56L46.31 11.56Q45.65 12.05 44.91 11.45L44.91 11.45L44.91 11.45Q44.17 10.84 43.74 10.15L43.74 10.15L43.74 10.15Q43.30 9.46 43.61 8.45L43.61 8.45L43.61 8.45Q43.91 7.43 44.70 7.26ZM51.47 6.53L51.47 6.53L51.47 6.53Q50.80 6.63 50.35 6.92L50.35 6.92L50.35 6.92Q49.90 7.21 49.54 7.57L49.54 7.57L49.54 7.57Q49.18 7.94 49.09 8.43L49.09 8.43L49.09 8.43Q48.99 8.93 49.42 9.37L49.42 9.37L49.42 9.37Q49.85 9.80 50.90 10.02L50.90 10.02L50.90 10.02Q51.95 10.24 52.35 10.47L52.35 10.47L52.35 10.47Q52.75 10.70 52.84 11.11L52.84 11.11L52.84 11.11Q52.93 11.53 52.63 11.79L52.63 11.79L52.63 11.79Q52.34 12.05 51.56 11.93L51.56 11.93L51.56 11.93Q50.78 11.81 50.37 11.55L50.37 11.55L50.37 11.55Q49.96 11.29 49.60 10.89L49.60 10.89L49.60 10.89Q49.25 10.50 49.51 10.34L49.51 10.34L49.42 10.25L48.66 10.84L48.66 10.84Q48.54 11.20 48.93 11.70L48.93 11.70L48.93 11.70Q49.32 12.21 49.90 12.52L49.90 12.52L49.90 12.52Q50.48 12.82 51.21 12.80L51.21 12.80L51.21 12.80Q51.93 12.78 52.53 12.34L52.53 12.34L52.53 12.34Q53.14 11.90 53.44 11.35L53.44 11.35L53.44 11.35Q53.74 10.81 53.65 10.36L53.65 10.36L53.65 10.36Q53.55 9.91 53.14 9.56L53.14 9.56L53.14 9.56Q52.73 9.20 51.42 8.95L51.42 8.95L51.42 8.95Q50.11 8.70 50.06 8.09L50.06 8.09L50.06 8.09Q50.00 7.48 50.60 7.31L50.60 7.31L50.60 7.31Q51.19 7.14 51.91 7.45L51.91 7.45L51.91 7.45Q52.62 7.76 52.34 8.13L52.34 8.13L52.43 8.24L53.24 7.40L53.24 7.40Q53.14 6.93 52.63 6.68L52.63 6.68L52.63 6.68Q52.13 6.43 51.47 6.53ZM57.49 6.60L57.49 6.60L57.49 6.60Q56.42 6.43 55.49 7.26L55.49 7.26L55.49 7.26Q54.56 8.09 54.30 9.20L54.30 9.20L54.30 9.20Q54.04 10.31 54.47 11.26L54.47 11.26L54.47 11.26Q54.89 12.22 56.03 12.62L56.03 12.62L56.03 12.62Q56.96 12.93 57.96 12.18L57.96 12.18L57.96 12.18Q58.97 11.43 59.08 10.84L59.08 10.84L58.87 10.68L58.87 10.68Q58.05 11.85 57.27 11.81L57.27 11.81L57.27 11.81Q56.49 11.76 56.11 11.46L56.11 11.46L56.11 11.46Q55.72 11.15 55.51 10.80L55.51 10.80L57.40 9.54L57.40 9.54Q58.84 8.65 58.70 7.70L58.70 7.70L58.70 7.70Q58.56 6.76 57.49 6.60ZM55.06 8.75L55.06 8.75L55.06 8.75Q55.06 8.12 55.57 7.58L55.57 7.58L55.57 7.58Q56.08 7.04 56.67 7.19L56.67 7.19L56.67 7.19Q57.27 7.34 57.51 8.00L57.51 8.00L57.51 8.00Q57.74 8.67 57.45 9.02L57.45 9.02L57.45 9.02Q57.16 9.37 55.33 10.40L55.33 10.40L55.33 10.40Q55.17 10.04 55.11 9.71L55.11 9.71L55.11 9.71Q55.05 9.37 55.06 8.75Z"></path></g><defs data-v-423bf9ae=""><linearGradient data-v-423bf9ae="" gradientTransform="rotate(25)" id="835e294a-8bae-4b1f-8f77-ca931783f7e6" x1="0%" y1="0%" x2="100%" y2="0%"><stop data-v-423bf9ae="" offset="0%" style="stop-color: rgb(229, 101, 0); stop-opacity: 1;"></stop><stop data-v-423bf9ae="" offset="100%" style="stop-color: rgb(235, 197, 29); stop-opacity: 1;"></stop></linearGradient></defs><g data-v-423bf9ae="" id="136edc81-6822-4a13-a20c-65ec38cd6c7b" transform="matrix(1.0742263793945312,0,0,1.0742263793945312,-24.577922821044922,-8.601990699768066)" stroke="none" fill="url(#835e294a-8bae-4b1f-8f77-ca931783f7e6)"><path d="M75.294 26.35S73.289 37.275 62 40.099v6.189l-7.827 4.733s.547-8.01-.818-9.56c0 0 2.006-1.093 1.093-2.547l2.962.437-2.742-4.113c.961-.944 3.597-4.697-.176-15.212 0 0 .409-2.506 2.049-2.959 0 0-1.592-2.732-6.145-2.501 0 0-3.734-9.062-6.69-3.645 0 0-4.234-7.781-7.74 2.549 0 0-9.604.318-2.911 5.963 0 0-4.781 1.319-.638 5.005 0 0-4.871.183-4.598 3.461 0 0 3.279-.775 5.78 3.869 1.962 3.638 4.596 10.033 12.686 7.804l.789 3.803 1.637-3.004s1.185 1.637 2.46 1.545c1.273-.089 2.003 6.919.092 9.74-.805 1.188-3.236 3.89-5.884 7.039l-.125-2.85s3.551-9.83-6.373-13.292c-9.923-3.459-15.747-.546-15.747-.546s13.106 4.189 12.105 13.475c0 0 4.189-3.097 6.919-.729l1.921 5.513c-3.261 3.972-6.503 8.353-7.201 11.238-1.367 5.644-2.005 18.844-1.367 19.756.638.908 3.459.999 3.551-.818.092-1.824-2.364-12.656.913-19.303 3.276-6.645 16.93-19.663 22.12-22.667 0 0 5.918 3.004 11.742-3.912 5.827-6.922 1.457-18.21 1.457-18.21z"></path></g><!----></svg>